<?xml version="1.0" encoding="UTF-8"?><svg xmlns="http://www.w3.org/2000/svg" width="35.86" height="46.55" viewBox="0 0 35.86 46.55"><g style="isolation:isolate;"><g id="b"><g id="c"><g><g style="mix-blend-mode:multiply; opacity:.4;"><path d="M33.83,16.64H12.52c-1.24,0-2.19,1.09-2.02,2.32l.44,3.13c-4.95,.69-8.78,4.95-8.78,10.1,0,5.63,4.57,10.19,10.2,10.19,.48,0,.94-.04,1.41-.1l.36,2.51c.14,1.01,1.01,1.75,2.02,1.75h14.06c1.01,0,1.87-.75,2.01-1.75l3.62-25.83c.18-1.23-.77-2.32-2.01-2.32ZM12.36,38.58c-3.54,0-6.4-2.86-6.4-6.4,0-3.23,2.39-5.9,5.52-6.32l1.77,12.65c-.28,.05-.58,.07-.88,.07Z" style="fill:#373461;"/></g><g><path d="M32.17,14.66H10.86c-1.24,0-2.19,1.09-2.02,2.32l.44,3.13C4.32,20.8,.5,25.06,.5,30.21c0,5.63,4.57,10.19,10.2,10.19,.48,0,.94-.04,1.41-.1l.36,2.51c.14,1.01,1.01,1.75,2.02,1.75h14.06c1.01,0,1.87-.75,2.01-1.75l3.62-25.83c.18-1.23-.77-2.32-2.01-2.32ZM10.7,36.6c-3.54,0-6.4-2.86-6.4-6.4,0-3.23,2.39-5.9,5.52-6.32l1.77,12.65c-.28,.05-.58,.07-.88,.07Z" style="fill:#e83562; stroke:#0a080d; stroke-miterlimit:10;"/><path d="M21.48,12.38c-1.81-1.31-3.59-4.47-1.39-6.37,.64-.52,1.39-.7,1.76-1.33C22.57,3.3,22.17,1.68,22.14,0c1.84,1.85,2.67,5.78-.2,7.19-.58,.32-.77,.43-.93,.69-.62,1.34,.17,2.93,.47,4.5h0Z" style="fill:#e83562;"/><path d="M26.09,12.38c-1.81-1.31-3.59-4.47-1.39-6.37,.64-.52,1.39-.7,1.76-1.33,.73-1.38,.33-3,.3-4.69,1.84,1.85,2.67,5.78-.2,7.19-.58,.32-.77,.43-.93,.69-.62,1.34,.17,2.93,.47,4.5h0Z" style="fill:#e83562;"/><path d="M16.87,12.38c-1.81-1.31-3.59-4.47-1.39-6.37,.64-.52,1.39-.7,1.76-1.33C17.96,3.3,17.56,1.68,17.53,0c1.84,1.85,2.67,5.78-.2,7.19-.58,.32-.77,.43-.93,.69-.62,1.34,.17,2.93,.47,4.5h0Z" style="fill:#e83562;"/></g></g></g></g></g></svg>