<?xml version="1.0" encoding="UTF-8"?><svg id="b" xmlns="http://www.w3.org/2000/svg" width="29.42" height="29.42" xmlns:xlink="http://www.w3.org/1999/xlink" viewBox="0 0 29.42 29.42"><defs><linearGradient id="d" x1="26.02" y1="3.4" x2="3.19" y2="26.23" gradientUnits="userSpaceOnUse"><stop offset=".05" stop-color="#7199d9"/><stop offset=".12" stop-color="#789eda"/><stop offset=".21" stop-color="#8dade0"/><stop offset=".33" stop-color="#aec5e8"/><stop offset=".46" stop-color="#dde7f4"/><stop offset=".46" stop-color="#dfe9f5"/><stop offset=".58" stop-color="#dbe6f4"/><stop offset=".68" stop-color="#d1dff1"/><stop offset=".78" stop-color="#c0d3ed"/><stop offset=".86" stop-color="#a9c1e7"/><stop offset=".94" stop-color="#8aabdf"/><stop offset="1" stop-color="#7199d9"/></linearGradient><linearGradient id="e" x1="5.29" y1="4.96" x2="31.98" y2="32.59" gradientUnits="userSpaceOnUse"><stop offset="0" stop-color="#dfe9f5"/><stop offset=".04" stop-color="#d0def1"/><stop offset=".13" stop-color="#b2c8e9"/><stop offset=".23" stop-color="#9ab7e3"/><stop offset=".34" stop-color="#88a9de"/><stop offset=".48" stop-color="#7aa0db"/><stop offset=".65" stop-color="#739ad9"/><stop offset="1" stop-color="#7199d9"/></linearGradient></defs><g id="c"><g><g><path d="M5.55,1H23.87c2.51,0,4.55,2.04,4.55,4.55V23.87c0,2.51-2.04,4.55-4.55,4.55H5.55c-2.51,0-4.55-2.04-4.55-4.55V5.55C1,3.04,3.04,1,5.55,1Z" style="fill:url(#d);"/><path d="M23.87,2c1.96,0,3.55,1.59,3.55,3.55V23.87c0,1.96-1.59,3.55-3.55,3.55H5.55c-1.96,0-3.55-1.59-3.55-3.55V5.55c0-1.96,1.59-3.55,3.55-3.55H23.87m0-2H5.55C2.49,0,0,2.49,0,5.55V23.87c0,3.06,2.49,5.55,5.55,5.55H23.87c3.06,0,5.55-2.49,5.55-5.55V5.55c0-3.06-2.49-5.55-5.55-5.55h0Z" style="fill:#373461;"/></g><rect x="4.22" y="4.22" width="20.97" height="20.97" rx="1.33" ry="1.33" style="fill:url(#e);"/><ellipse cx="22.83" cy="12.64" rx=".82" ry="4.47" style="fill:#dfe9f5;"/><ellipse cx="17.91" cy="12.64" rx="1.16" ry="6.31" style="fill:#dfe9f5;"/></g></g></svg>