<?xml version="1.0" encoding="UTF-8"?><svg xmlns="http://www.w3.org/2000/svg" width="19.62" height="45.41" viewBox="0 0 19.62 45.41"><g style="isolation:isolate;"><g id="b"><g id="c"><g><path d="M18.51,43.03c0,1.32-1.27,2.38-2.83,2.38H5.76c-1.56,0-2.83-1.06-2.83-2.38l-.7-6.85c-.74-7.21-.47-14.49,.79-21.62l1.86-8.64C4.88,3.84,1.58,1.82,6.39,1.82H15.04c4.82,0,1.52,2.02,1.52,4.09l1.86,8.64c1.26,7.14,1.53,14.41,.79,21.62l-.7,6.85Z" style="fill:#373461; mix-blend-mode:multiply; opacity:.4;"/><path d="M16.69,41.21c0,1.32-1.27,2.38-2.83,2.38H3.94c-1.56,0-2.83-1.06-2.83-2.38l-.7-6.85C-.33,27.15-.06,19.87,1.2,12.74L3.06,4.09C3.06,2.02-.24,0,4.57,0H13.22c4.82,0,1.52,2.02,1.52,4.09l1.86,8.64c1.26,7.14,1.53,14.41,.79,21.62l-.7,6.85Z" style="fill:#373461;"/><path d="M15.96,33.42l-.58,6.53c0,1.26-1.06,2.27-2.35,2.27H4.78c-1.3,0-2.35-1.01-2.35-2.27l-.58-6.53c-.57-6.37-.42-12.79,.44-19.11,2.82-2.27,7.18,2.22,13.23,0,.86,6.33,1.01,12.74,.44,19.11Z" style="fill:#dfe9f5;"/></g></g></g></g></svg>