<?xml version="1.0" encoding="UTF-8"?><svg xmlns="http://www.w3.org/2000/svg" width="31.83" height="38.38" viewBox="0 0 31.83 38.38"><g style="isolation:isolate;"><g id="b"><g id="c"><g><g><path d="M25.47,38.38H9.66c-1.14,0-2.11-.84-2.27-1.97L3.33,7.36c-.19-1.38,.88-2.6,2.27-2.6H29.54c1.39,0,2.46,1.23,2.27,2.6l-4.07,29.04c-.16,1.13-1.12,1.97-2.27,1.97Z" style="fill:#373461; mix-blend-mode:multiply; opacity:.4;"/><path d="M29,5.14l-.82,5.85-3.25,23.19c-.15,1.13-1.12,1.97-2.26,1.97H6.86c-1.14,0-2.11-.84-2.27-1.97L1.34,10.99,.52,5.14c-.19-1.38,.88-2.61,2.27-2.61H26.74c1.39,0,2.46,1.23,2.26,2.61Z" style="fill:#dfe9f5; stroke:#0a080d; stroke-miterlimit:10;"/></g><path d="M26.54,12.79l-2.85,19.87c-.13,.97-.98,1.69-1.98,1.69H7.83c-1,0-1.85-.72-1.99-1.69L2.98,12.79c8.7-5.19,14.12,4.39,23.56,0Z" style="fill:#9e5252;"/><circle cx="7.48" cy="16.11" r="1.25" style="fill:#dfe9f5;"/><circle cx="6.94" cy="7.95" r="1.25" style="fill:#9e5252;"/><circle cx="6.22" cy=".62" r=".62" style="fill:#9e5252;"/><circle cx="8.73" cy="4.02" r=".74" style="fill:#9e5252;"/><circle cx="9.76" cy="18.61" r=".78" style="fill:#dfe9f5;"/><circle cx="8.19" cy="24.41" r=".63" style="fill:#dfe9f5;"/></g></g></g></g></svg>