<?xml version="1.0" encoding="UTF-8"?><svg xmlns="http://www.w3.org/2000/svg" width="33.24" height="33.24" viewBox="0 0 33.24 33.24"><g style="isolation:isolate;"><g id="b"><g id="c"><g><path d="M30.33,33.24H6.78c-1.61,0-2.91-1.3-2.91-2.91V6.78c0-1.61,1.3-2.91,2.91-2.91H30.33c1.61,0,2.91,1.3,2.91,2.91-.84,8.78-.98,16.79,0,23.54,0,1.61-1.3,2.91-2.91,2.91Z" style="fill:#373461; mix-blend-mode:multiply; opacity:.4;"/><path d="M26.96,29.87H3.41c-1.61,0-2.91-1.3-2.91-2.91,.85-6,.74-14.09,0-23.54C.5,1.8,1.8,.5,3.41,.5c8.15,.9,15.99,.86,23.54,0,1.61,0,2.91,1.3,2.91,2.91-.59,9.3-.93,17.98,0,23.54,0,1.61-1.3,2.91-2.91,2.91Z" style="fill:#7199d9; stroke:#0a080d; stroke-miterlimit:10;"/><path d="M18.74,3.95c.35-.07,.3-.59-.06-.58-4.02,.08-12.32,.2-13.61-.23-2.43-.81-2.82,1.41-2.11,3.38,.49,1.38,.71,3.99,.72,6.18,0,.33,.46,.4,.56,.09,.63-1.88,1.74-4.41,3.52-5.92,1.98-1.68,7.76-2.31,10.98-2.92Z" style="fill:#dfe9f5;"/></g></g></g></g></svg>